HIERARCHY
ROOT Hips
{
	OFFSET 0.000000 89.005402 0.000000
	CHANNELS 6 Xposition Yposition Zposition Xrotation Yrotation Zrotation
	JOINT Spine
	{
		OFFSET 0.116900 10.681000 0.373400
		CHANNELS 3 Xrotation Yrotation Zrotation
		JOINT Spine1
		{
			OFFSET 0.000000 13.840401 0.053500
			CHANNELS 3 Xrotation Yrotation Zrotation
			JOINT Spine2
			{
				OFFSET 0.000000 14.712700 -0.366200
				CHANNELS 3 Xrotation Yrotation Zrotation
				JOINT Neck
				{
					OFFSET 0.000000 35.415497 -3.314200
					CHANNELS 3 Xrotation Yrotation Zrotation
					JOINT Head
					{
						OFFSET 0.000000 16.899200 1.218300
						CHANNELS 3 Xrotation Yrotation Zrotation
						JOINT HeadTop_End
						{
							OFFSET 0.000000 22.206207 2.192500
							CHANNELS 3 Xrotation Yrotation Zrotation
							End Site
							{
								OFFSET 0.000000 22.314178 0.000000
							}
						}
					}
				}
				JOINT LeftShoulder
				{
					OFFSET 12.896400 26.716293 -4.548400
					CHANNELS 3 Xrotation Yrotation Zrotation
					JOINT LeftArm
					{
						OFFSET 19.027000 -4.857010 -1.718400
						CHANNELS 3 Xrotation Yrotation Zrotation
						JOINT LeftForeArm
						{
							OFFSET 24.179897 0.000000 0.000000
							CHANNELS 3 Xrotation Yrotation Zrotation
							JOINT LeftHand
							{
								OFFSET 27.156403 0.000000 0.000000
								CHANNELS 3 Xrotation Yrotation Zrotation
								JOINT LeftHandIndex1
								{
									OFFSET 16.441200 0.000000 0.000000
									CHANNELS 3 Xrotation Yrotation Zrotation
									JOINT LeftHandIndex2
									{
										OFFSET 4.821899 0.000000 0.000000
										CHANNELS 3 Xrotation Yrotation Zrotation
										JOINT LeftHandIndex3
										{
											OFFSET 6.386497 0.000000 0.000000
											CHANNELS 3 Xrotation Yrotation Zrotation
											JOINT LeftHandIndex4
											{
												OFFSET 5.188988 0.000000 0.000000
												CHANNELS 3 Xrotation Yrotation Zrotation
												End Site
												{
													OFFSET -0.178703 5.185913 0.000177
												}
											}
										}
									}
								}
								JOINT LeftHandThumb1
								{
									OFFSET 6.534897 -5.032593 5.900300
									CHANNELS 3 Xrotation Yrotation Zrotation
									JOINT LeftHandThumb2
									{
										OFFSET 3.818176 -2.204422 2.204423
										CHANNELS 3 Xrotation Yrotation Zrotation
										JOINT LeftHandThumb3
										{
											OFFSET 3.252098 -1.877594 1.877601
											CHANNELS 3 Xrotation Yrotation Zrotation
											JOINT LeftHandThumb4
											{
												OFFSET 5.251778 -3.032120 3.032117
												CHANNELS 3 Xrotation Yrotation Zrotation
												End Site
												{
													OFFSET 0.000023 6.780014 0.000000
												}
											}
										}
									}
								}
							}
						}
					}
				}
				JOINT RightShoulder
				{
					OFFSET -12.896300 26.716293 -4.548400
					CHANNELS 3 Xrotation Yrotation Zrotation
					JOINT RightArm
					{
						OFFSET -19.027000 -4.857010 -1.718400
						CHANNELS 3 Xrotation Yrotation Zrotation
						JOINT RightForeArm
						{
							OFFSET -24.179897 0.000000 0.000000
							CHANNELS 3 Xrotation Yrotation Zrotation
							JOINT RightHand
							{
								OFFSET -27.156403 0.000000 0.000000
								CHANNELS 3 Xrotation Yrotation Zrotation
								JOINT RightHandThumb1
								{
									OFFSET -6.591202 -4.852203 5.988100
									CHANNELS 3 Xrotation Yrotation Zrotation
									JOINT RightHandThumb2
									{
										OFFSET -3.818176 -2.204422 2.204423
										CHANNELS 3 Xrotation Yrotation Zrotation
										JOINT RightHandThumb3
										{
											OFFSET -3.252098 -1.877594 1.877601
											CHANNELS 3 Xrotation Yrotation Zrotation
											JOINT RightHandThumb4
											{
												OFFSET -5.251778 -3.032120 3.032117
												CHANNELS 3 Xrotation Yrotation Zrotation
												End Site
												{
													OFFSET -0.000023 6.780014 0.000000
												}
											}
										}
									}
								}
								JOINT RightHandIndex1
								{
									OFFSET -16.029404 0.000000 0.000000
									CHANNELS 3 Xrotation Yrotation Zrotation
									JOINT RightHandIndex2
									{
										OFFSET -5.213303 0.000000 0.000000
										CHANNELS 3 Xrotation Yrotation Zrotation
										JOINT RightHandIndex3
										{
											OFFSET -6.386528 0.000000 0.000000
											CHANNELS 3 Xrotation Yrotation Zrotation
											JOINT RightHandIndex4
											{
												OFFSET -5.189026 0.000000 0.000000
												CHANNELS 3 Xrotation Yrotation Zrotation
												End Site
												{
													OFFSET 0.236702 5.183624 0.001972
												}
											}
										}
									}
								}
							}
						}
					}
				}
			}
		}
	}
	JOINT LeftUpLeg
	{
		OFFSET 14.073000 -7.904099 -1.463000
		CHANNELS 3 Xrotation Yrotation Zrotation
		JOINT LeftLeg
		{
			OFFSET -0.109806 -34.073280 4.093200
			CHANNELS 3 Xrotation Yrotation Zrotation
			JOINT LeftFoot
			{
				OFFSET 0.109806 -29.899420 -6.319000
				CHANNELS 3 Xrotation Yrotation Zrotation
				JOINT LeftToeBase
				{
					OFFSET 1.551100 -14.988700 20.535801
					CHANNELS 3 Xrotation Yrotation Zrotation
					JOINT LeftToe_End
					{
						OFFSET 0.221200 0.570800 13.248301
						CHANNELS 3 Xrotation Yrotation Zrotation
						End Site
						{
							OFFSET 0.000000 13.262435 0.000000
						}
					}
				}
			}
		}
	}
	JOINT RightUpLeg
	{
		OFFSET -13.839300 -7.904099 -1.463000
		CHANNELS 3 Xrotation Yrotation Zrotation
		JOINT RightLeg
		{
			OFFSET 0.109694 -34.073219 4.093300
			CHANNELS 3 Xrotation Yrotation Zrotation
			JOINT RightFoot
			{
				OFFSET -0.109694 -29.899384 -6.319200
				CHANNELS 3 Xrotation Yrotation Zrotation
				JOINT RightToeBase
				{
					OFFSET -1.551100 -14.988700 20.535801
					CHANNELS 3 Xrotation Yrotation Zrotation
					JOINT RightToe_End
					{
						OFFSET -0.221200 0.570900 13.248299
						CHANNELS 3 Xrotation Yrotation Zrotation
						End Site
						{
							OFFSET 0.000000 13.262440 0.000000
						}
					}
				}
			}
		}
	}
}
MOTION
Frames: 5
Frame Time: 0.033333
-0.878264 84.469040 1.113561 -3.996754 4.960573 -8.492450 2.289772 4.109512 3.717684 0.862501 0.216463 -3.552141 1.009221 0.095050 -3.526082 6.360903 -3.459776 5.907431 10.080265 -28.564630 32.581058 -0.000001 0.000001 0.000001 4.345132 -14.184001 9.918736 59.298466 -28.295802 -55.273480 0.000085 -93.604423 0.000086 29.699592 -8.936137 44.290532 2.276704 -11.920800 6.176124 0.322872 2.643823 -18.674383 0.035463 0.822690 -10.227983 -0.000003 0.000001 0.000004 30.688948 -37.354045 20.104981 -8.604629 6.016015 -5.463664 -5.185219 -22.539937 5.000683 0.000002 -0.000002 -0.000002 0.241382 19.537176 8.147608 -8.053837 -0.893985 59.545125 0.000007 149.660428 -0.000024 -21.408924 0.221008 31.193023 -10.478466 -10.973670 -9.746404 5.963464 -10.173716 -6.017319 -6.431210 -11.960518 9.507323 0.000002 -0.000000 -0.000001 0.420512 -5.123788 12.385687 5.225522 -6.529705 84.390122 -0.193127 -0.216342 13.843944 0.000001 0.000002 0.000000 -12.127767 -31.029864 13.442914 47.139633 -5.579821 2.994391 -13.579275 0.186231 -13.440333 -26.320732 -0.000002 -0.000003 0.000001 -0.000001 0.000000 4.979003 -0.244718 16.567262 7.655855 -2.480361 6.433766 -10.835943 -7.410741 -13.832660 -1.777771 -0.000003 -0.000001 -0.000000 -0.000000 0.000000 
-0.888025 84.473701 1.159447 -3.987064 4.983127 -8.501661 2.295126 4.103432 3.740311 0.862780 0.214605 -3.546628 1.009432 0.093373 -3.520673 6.371075 -3.459407 5.892347 10.135608 -28.550015 32.596685 -0.000001 -0.000000 -0.000000 4.347393 -14.155676 9.949321 59.237090 -28.329367 -55.341393 0.000252 -93.549385 0.000298 29.722190 -9.001599 44.287124 2.258967 -11.917989 6.116887 0.322688 2.643217 -18.668171 0.035448 0.822669 -10.228028 -0.000000 0.000001 0.000003 30.623604 -37.380816 20.043074 -8.599313 6.030120 -5.461228 -5.185190 -22.539916 5.000691 -0.000000 0.000002 0.000000 0.236529 19.527414 8.171135 -7.930179 -0.814614 59.273850 -0.000008 149.688104 -0.000014 -21.482690 0.296211 30.917128 -10.345717 -10.934704 -9.738503 5.943360 -10.263768 -5.963322 -6.436914 -11.955927 9.466255 0.000001 0.000000 0.000000 0.420067 -5.121789 12.365478 5.197007 -6.526848 84.104955 -0.193126 -0.216349 13.843942 0.000000 -0.000001 0.000000 -12.138666 -31.036755 13.421934 47.206176 -5.532825 3.019662 -13.599620 0.169620 -13.387846 -26.419477 -0.000006 -0.000001 0.000000 0.000001 -0.000000 4.979196 -0.195323 16.584140 7.652517 -2.577273 6.436473 -10.825033 -7.392697 -13.821906 -1.870466 -0.000005 0.000003 -0.000000 -0.000001 -0.000000 
-0.898503 84.476868 1.203644 -3.980031 4.995564 -8.504961 2.292018 4.097932 3.769154 0.860940 0.213175 -3.539474 1.007550 0.092144 -3.513585 6.382536 -3.454460 5.871921 10.174396 -28.516448 32.585692 -0.000001 -0.000000 0.000000 4.348840 -14.125067 9.971700 59.159041 -28.346306 -55.417529 -0.000628 -93.486534 -0.000683 29.750637 -9.097229 44.247967 2.232689 -11.913500 6.029019 0.322369 2.642297 -18.658613 0.035467 0.822684 -10.228070 -0.000003 -0.000003 -0.000001 30.525150 -37.420199 19.951206 -8.594361 6.043137 -5.458971 -5.185219 -22.539894 5.000657 -0.000001 -0.000002 0.000001 0.238994 19.518922 8.166766 -7.868701 -0.717208 58.976395 -0.000001 149.682749 -0.000005 -21.600275 0.379613 30.661064 -10.199641 -10.891671 -9.729900 5.921244 -10.363020 -5.904013 -6.443332 -11.950931 9.421040 0.000001 0.000001 -0.000000 0.419588 -5.119593 12.343231 5.165613 -6.523537 83.791115 -0.193128 -0.216353 13.843945 0.000001 -0.000003 0.000001 -12.143395 -31.037308 13.398078 47.269110 -5.487290 3.042821 -13.620744 0.172480 -13.340320 -26.512486 -0.000009 0.000003 -0.000000 -0.000001 -0.000000 4.969215 -0.153855 16.592929 7.680560 -2.670808 6.439765 -10.827775 -7.367423 -13.809015 -1.964015 0.000004 0.000004 -0.000000 -0.000000 0.000000 
-0.908968 84.478424 1.243844 -3.968908 4.993658 -8.505204 2.278168 4.094120 3.803578 0.856662 0.212764 -3.531718 1.003272 0.091914 -3.505824 6.391936 -3.443965 5.845237 10.183149 -28.465997 32.555403 -0.000001 0.000001 -0.000000 4.349741 -14.107554 9.985182 59.090637 -28.342001 -55.499590 0.000317 -93.437459 0.000336 29.768184 -9.190708 44.178572 2.201018 -11.907421 5.923344 0.321974 2.641191 -18.646881 0.035467 0.822688 -10.228133 -0.000000 -0.000002 -0.000000 30.405516 -37.466921 19.840223 -8.589911 6.054912 -5.456933 -5.185199 -22.539906 5.000677 0.000003 -0.000000 -0.000001 0.244859 19.520606 8.143852 -7.852095 -0.579404 58.659871 0.000011 149.641863 -0.000022 -21.737249 0.488143 30.400687 -10.040946 -10.844734 -9.720673 5.897170 -10.471023 -5.839713 -6.450364 -11.945526 9.371929 -0.000000 -0.000000 -0.000000 0.419061 -5.117209 12.319050 5.131529 -6.519750 83.450042 -0.193127 -0.216348 13.843945 -0.000000 -0.000002 0.000000 -12.132234 -31.036625 13.392643 47.298271 -5.469008 3.055497 -13.631711 0.192872 -13.330397 -26.572615 -0.000003 -0.000004 -0.000000 -0.000000 0.000000 5.000077 -0.104046 16.594190 7.632181 -2.753169 6.445504 -10.831426 -7.340561 -13.803079 -2.019940 -0.000001 -0.000003 0.000000 -0.000000 0.000000 
-0.919098 84.481941 1.279213 -3.951203 4.981082 -8.509186 2.257805 4.090198 3.844988 0.851430 0.212759 -3.523953 0.998047 0.092071 -3.497995 6.394629 -3.431582 5.815144 10.162113 -28.417735 32.524545 -0.000001 0.000000 -0.000000 4.349892 -14.123456 9.982797 59.060093 -28.316281 -55.577198 -0.000469 -93.416470 -0.000444 29.762778 -9.248378 44.118907 2.175289 -11.902002 5.837849 0.321686 2.640291 -18.637377 0.035447 0.822703 -10.228190 -0.000002 0.000001 -0.000002 30.308227 -37.504183 19.750020 -8.586035 6.065169 -5.455151 -5.185229 -22.540002 5.000676 0.000002 -0.000000 -0.000001 0.252333 19.534720 8.107692 -7.844913 -0.427780 58.309789 0.000001 149.593314 -0.000005 -21.876964 0.624825 30.098741 -9.870286 -10.794025 -9.710882 5.871313 -10.587364 -5.770733 -6.457855 -11.939670 9.319133 -0.000001 -0.000000 0.000000 0.418496 -5.114631 12.293049 5.094896 -6.515452 83.083159 -0.193125 -0.216349 13.843946 0.000000 -0.000002 -0.000000 -12.095219 -31.037998 13.420766 47.274294 -5.486144 3.057232 -13.629292 0.217904 -13.365575 -26.586149 -0.000000 -0.000006 -0.000000 0.000000 -0.000000 5.100551 -0.029199 16.596905 7.429323 -2.798672 6.459988 -10.803853 -7.327304 -13.821611 -2.012093 -0.000002 -0.000000 -0.000000 -0.000000 0.000000 
